<?xml version="1.0" standalone="no"?>
<!DOCTYPE svg PUBLIC "-//W3C//DTD SVG 20010904//EN"
 "http://www.w3.org/TR/2001/REC-SVG-20010904/DTD/svg10.dtd">
<svg version="1.0" xmlns="http://www.w3.org/2000/svg"
 width="889.000000pt" height="639.000000pt" viewBox="0 0 889.000000 639.000000"
 preserveAspectRatio="xMidYMid meet">

<g transform="translate(0.000000,639.000000) scale(0.100000,-0.100000)"
fill="#000000" stroke="none">
<path d="M20 6324 c0 -22 135 -341 189 -449 265 -522 588 -892 1042 -1193 227
-150 454 -265 800 -406 356 -144 603 -267 819 -408 124 -80 329 -247 454 -368
228 -221 375 -422 511 -702 48 -98 88 -178 90 -178 6 0 -28 162 -62 295 -151
591 -401 1054 -723 1340 -175 155 -326 242 -1126 648 -790 400 -954 492 -1219
680 -256 182 -520 430 -680 641 -72 94 -95 119 -95 100z"/>
<path d="M8393 6294 c-314 -408 -612 -658 -1158 -976 -179 -104 -460 -251
-925 -483 -694 -347 -860 -445 -1048 -620 -225 -209 -440 -575 -583 -995 -63
-185 -166 -585 -157 -612 2 -5 23 36 47 89 249 554 616 946 1201 1286 180 105
305 162 755 347 489 202 818 412 1126 719 257 257 409 472 589 831 79 160 196
437 187 446 -3 3 -18 -11 -34 -32z"/>
<path d="M4180 6084 c-209 -44 -359 -135 -425 -256 -26 -48 -29 -64 -33 -171
l-4 -117 50 -103 c28 -56 65 -147 83 -202 41 -129 44 -133 81 -98 58 56 119
170 174 327 29 86 67 182 84 216 81 160 212 226 368 186 206 -52 327 -181 383
-405 19 -73 21 -105 16 -235 -5 -164 -15 -208 -79 -329 -55 -107 -210 -250
-443 -412 -251 -174 -399 -315 -458 -436 -56 -114 -77 -211 -84 -379 -10 -262
27 -424 162 -705 37 -77 87 -198 111 -270 24 -71 43 -125 44 -120 1 32 62 353
80 425 55 215 166 449 326 685 59 88 141 210 182 270 226 336 313 550 377 931
66 389 9 691 -175 923 -168 212 -537 336 -820 275z"/>
<path d="M345 5059 c33 -149 132 -361 231 -492 168 -223 374 -387 681 -541
166 -83 292 -135 692 -286 653 -246 917 -370 1221 -573 160 -107 352 -278 534
-477 79 -86 86 -91 71 -55 -45 112 -207 369 -333 530 -77 98 -332 350 -422
417 -202 150 -354 225 -908 449 -842 341 -1007 419 -1291 607 -118 78 -285
230 -414 376 -64 73 -69 76 -62 45z"/>
<path d="M8053 5023 c-60 -86 -241 -255 -375 -350 -276 -196 -490 -299 -1258
-608 -512 -205 -698 -293 -900 -424 -247 -160 -542 -476 -710 -762 -75 -126
-144 -258 -138 -264 2 -3 42 39 89 91 197 224 395 387 669 553 279 168 506
270 1095 491 409 154 510 196 704 296 210 109 335 198 477 339 139 137 227
252 289 375 51 102 107 264 103 299 -3 22 -8 18 -45 -36z"/>
<path d="M550 4199 c143 -205 299 -364 475 -487 258 -180 448 -260 1055 -443
858 -260 1084 -346 1410 -542 96 -58 -62 76 -240 203 -357 254 -806 466 -1500
705 -761 263 -894 324 -1130 520 -73 61 -89 71 -70 44z"/>
<path d="M7831 4158 c-81 -76 -232 -176 -353 -232 -132 -61 -230 -99 -588
-224 -652 -229 -854 -309 -1135 -449 -315 -158 -539 -298 -759 -478 -47 -38
-85 -74 -86 -78 0 -4 26 10 58 31 238 161 442 241 1292 507 693 217 840 272
1040 393 227 137 481 376 589 555 12 20 19 37 14 37 -4 -1 -37 -28 -72 -62z"/>
<path d="M5949 1978 c-50 -17 -62 -105 -19 -128 28 -15 77 -12 94 6 58 57 2
148 -75 122z"/>
<path d="M6810 1673 c0 -164 3 -315 6 -335 7 -43 36 -66 86 -70 l33 -3 5 170
c5 156 7 173 28 202 41 57 121 51 151 -12 9 -18 17 -82 21 -166 8 -169 17
-189 87 -189 l46 0 -6 174 c-3 96 -12 194 -19 217 -31 104 -160 159 -257 109
-45 -23 -51 -17 -51 53 -1 61 -16 120 -36 134 -10 7 -35 13 -56 13 l-38 0 0
-297z"/>
<path d="M899 1922 c-75 -39 -119 -111 -119 -194 0 -54 3 -61 38 -96 28 -28
66 -49 138 -77 118 -46 142 -60 150 -90 8 -33 -20 -80 -56 -95 -46 -19 -152
-6 -205 25 -54 31 -55 31 -55 -1 0 -42 29 -92 69 -116 31 -20 50 -23 131 -23
86 0 100 3 146 28 70 39 98 90 98 177 0 36 -6 75 -13 88 -21 39 -91 81 -179
108 -98 30 -135 60 -130 107 2 19 14 38 31 51 40 29 152 28 221 -2 27 -12 50
-22 52 -22 2 0 4 18 4 41 0 77 -70 119 -201 119 -54 0 -77 -6 -120 -28z"/>
<path d="M3512 1923 c-12 -2 -26 -12 -31 -21 -9 -17 -14 -211 -12 -463 1 -91
5 -140 14 -151 6 -9 34 -20 60 -24 l48 -6 -3 143 -3 144 88 2 c112 3 142 16
142 63 l0 35 -115 5 c-63 3 -114 8 -112 13 1 4 2 40 2 81 l0 73 103 8 c113 8
167 24 168 52 0 10 2 26 4 36 3 16 -10 17 -163 16 -92 -1 -177 -4 -190 -6z"/>
<path d="M7446 1861 l-38 -39 4 -218 c3 -199 5 -222 24 -254 27 -48 90 -81
153 -82 88 0 120 21 121 80 l0 32 -62 -1 c-55 -2 -64 1 -85 25 -21 25 -23 36
-23 152 l0 124 53 0 c73 0 117 28 117 74 0 41 -10 46 -101 46 -66 0 -69 1 -69
24 0 40 -18 76 -38 76 -10 0 -35 -17 -56 -39z"/>
<path d="M1301 1791 c-41 -26 107 -447 177 -502 34 -26 68 -24 88 6 9 14 35
71 58 127 24 56 47 103 53 105 6 2 13 -11 17 -29 9 -48 69 -168 100 -200 40
-41 70 -37 103 15 56 89 159 390 148 434 -3 13 -16 30 -30 39 -20 13 -28 14
-51 2 -22 -10 -31 -25 -41 -68 -27 -108 -74 -250 -83 -250 -14 0 -33 42 -69
152 -41 123 -60 148 -111 148 l-39 0 -16 -57 c-27 -102 -69 -224 -81 -234 -17
-14 -53 85 -88 243 -10 45 -100 92 -135 69z"/>
<path d="M2806 1780 c-69 -22 -111 -58 -139 -120 -29 -62 -37 -286 -14 -343
16 -38 47 -57 92 -57 l23 0 4 173 c3 161 4 174 26 204 40 56 104 56 146 0 18
-24 22 -47 27 -172 6 -155 18 -194 62 -196 12 -1 35 -3 51 -5 l29 -3 -7 152
c-11 252 -29 302 -126 349 -76 37 -106 40 -174 18z"/>
<path d="M4083 1789 c-124 -23 -203 -131 -203 -275 0 -80 41 -179 88 -213 70
-49 151 -62 236 -37 67 20 110 58 143 123 23 48 28 70 27 133 0 89 -17 132
-74 194 -58 62 -138 90 -217 75z m104 -134 c32 -21 63 -89 63 -140 0 -83 -57
-155 -122 -155 -36 0 -83 34 -101 73 -33 69 -7 208 43 235 30 15 82 9 117 -13z"/>
<path d="M4622 1781 c-106 -37 -123 -73 -130 -268 -7 -210 1 -232 91 -248 l37
-7 1 113 c0 183 12 269 40 292 16 13 32 17 58 12 48 -7 63 5 59 45 -6 63 -74
90 -156 61z"/>
<path d="M5059 1789 c-53 -8 -93 -27 -138 -65 -124 -104 -98 -356 44 -440 55
-32 163 -44 232 -25 50 14 93 60 93 102 0 34 4 33 -50 14 -54 -19 -150 -19
-195 -1 -19 8 -44 30 -55 48 -25 41 -24 41 123 57 121 12 169 30 186 67 43 95
-39 217 -164 244 -16 3 -51 3 -76 -1z m101 -128 c36 -26 37 -56 4 -78 -20 -13
-48 -17 -108 -18 -74 0 -81 2 -84 21 -2 11 7 33 19 48 44 55 113 66 169 27z"/>
<path d="M5562 1788 c-61 -10 -110 -43 -143 -97 -41 -64 -40 -112 4 -156 30
-30 114 -65 156 -65 9 0 31 -9 49 -20 40 -24 41 -58 2 -77 -38 -19 -128 -16
-177 7 l-43 19 0 -35 c0 -71 35 -97 140 -108 157 -16 252 65 230 196 -10 56
-32 74 -136 108 -124 42 -151 70 -102 104 28 20 128 21 180 2 43 -15 48 -13
48 23 -1 69 -104 118 -208 99z"/>
<path d="M2208 1775 c-39 -13 -50 -22 -67 -58 -26 -54 -28 -82 -3 -72 91 35
140 46 178 40 53 -8 94 -39 94 -71 0 -13 -1 -24 -2 -24 -164 -12 -240 -36
-276 -90 -20 -30 -23 -44 -20 -97 3 -52 9 -68 32 -92 77 -80 280 -82 349 -3
32 35 46 93 46 187 1 154 -31 234 -106 271 -50 24 -163 28 -225 9z m202 -320
c0 -76 -43 -115 -112 -101 -56 11 -84 55 -60 93 15 24 68 43 120 43 l52 0 0
-35z"/>
<path d="M6380 1781 c-107 -33 -169 -114 -178 -231 -4 -57 -1 -73 22 -118 50
-99 159 -138 261 -93 26 11 49 21 51 21 10 0 2 -65 -11 -90 -21 -41 -44 -50
-117 -50 -56 1 -88 8 -150 35 -15 6 -18 2 -18 -28 0 -68 77 -117 185 -117 102
0 174 41 218 124 20 38 22 54 21 196 -2 238 -20 292 -114 340 -40 21 -121 26
-170 11z m109 -117 c51 -36 65 -125 30 -184 -27 -45 -36 -50 -82 -50 -31 0
-46 7 -74 35 -33 33 -35 39 -31 86 10 99 92 158 157 113z"/>
<path d="M5910 1693 c1 -43 5 -140 9 -217 9 -136 9 -139 39 -169 26 -26 41
-31 90 -35 69 -5 92 11 92 64 0 31 -3 34 -29 34 -59 0 -65 17 -78 231 -6 88
-14 143 -22 153 -9 10 -29 16 -57 16 l-44 0 0 -77z"/>
<path d="M2166 710 c-95 -37 -137 -99 -137 -204 0 -72 12 -111 49 -149 79 -84
208 -96 284 -28 50 44 31 55 -37 21 -86 -43 -139 -38 -198 18 -42 39 -57 75
-57 132 0 138 123 225 240 170 29 -14 56 -20 67 -16 16 7 16 9 -7 26 -29 23
-104 50 -134 50 -12 -1 -43 -10 -70 -20z"/>
<path d="M4542 517 c2 -119 8 -220 11 -224 15 -14 21 12 25 102 l4 95 80 0
c44 0 89 5 101 12 l22 12 -25 7 c-14 4 -60 7 -102 8 l-78 1 0 80 0 80 99 0
c95 0 132 10 93 25 -9 3 -66 9 -126 12 l-109 6 5 -216z"/>
<path d="M3500 680 c0 -13 7 -20 20 -20 13 0 20 7 20 20 0 13 -7 20 -20 20
-13 0 -20 -7 -20 -20z"/>
<path d="M3327 634 c-4 -4 -7 -18 -7 -30 0 -16 -10 -29 -31 -39 -33 -17 -32
-21 3 -39 21 -10 24 -21 29 -111 6 -87 10 -101 30 -118 26 -21 74 -19 74 3 0
8 -9 16 -20 18 -36 6 -45 31 -45 123 l0 88 32 3 c43 4 46 23 6 34 -25 8 -34
16 -38 39 -5 28 -20 42 -33 29z"/>
<path d="M5207 601 c-4 -17 -14 -30 -26 -34 -26 -6 -27 -25 -3 -34 28 -11 32
-24 32 -113 0 -97 12 -125 61 -135 22 -5 36 -3 47 9 15 14 13 16 -16 22 -44 9
-52 28 -52 128 0 82 1 86 23 86 12 0 29 5 37 10 13 9 13 11 0 20 -8 5 -22 10
-30 10 -21 0 -40 20 -40 42 0 29 -27 21 -33 -11z"/>
<path d="M2475 560 c-9 -15 -7 -218 4 -255 l8 -30 6 30 c3 17 9 55 12 85 12
106 32 140 84 140 24 0 37 18 22 33 -7 7 -22 5 -51 -8 -38 -17 -41 -17 -59 -1
-13 12 -21 14 -26 6z"/>
<path d="M2730 551 c-55 -30 -73 -56 -78 -114 -5 -64 23 -112 82 -141 37 -18
41 -18 91 -2 52 16 84 40 71 53 -4 4 -21 1 -39 -6 -62 -26 -100 -25 -135 4
-60 51 -42 65 86 65 48 0 93 4 101 9 43 28 -60 152 -126 151 -10 -1 -34 -9
-53 -19z m114 -42 c33 -26 33 -47 0 -59 -33 -13 -141 -13 -149 0 -9 15 13 48
43 64 38 21 75 19 106 -5z"/>
<path d="M3028 554 c-20 -9 -39 -22 -42 -31 -5 -13 0 -14 31 -7 64 14 114 10
129 -11 19 -25 1 -45 -40 -45 -44 -1 -111 -33 -131 -64 -23 -35 -6 -77 41 -99
43 -21 57 -21 95 -1 28 14 32 14 50 -2 11 -9 22 -14 27 -10 9 10 9 183 -1 219
-5 20 -20 34 -50 47 -50 23 -61 24 -109 4z m130 -157 c5 -27 -51 -77 -87 -77
-59 0 -82 58 -33 85 38 21 116 16 120 -8z"/>
<path d="M3646 555 c-3 -9 -6 -58 -6 -110 0 -160 22 -207 35 -73 12 129 29
158 94 158 44 0 59 -30 68 -139 9 -107 27 -131 38 -51 9 68 -3 160 -23 184
-10 10 -30 25 -45 33 -25 13 -34 13 -75 -1 -41 -14 -47 -14 -62 -1 -16 14 -18
14 -24 0z"/>
<path d="M4060 559 c-32 -13 -68 -47 -86 -81 -34 -65 -3 -140 73 -180 42 -22
43 -23 92 -5 71 25 75 24 68 -24 -6 -49 -28 -74 -74 -90 -29 -9 -43 -8 -94 11
-33 13 -62 20 -66 17 -25 -25 104 -74 164 -62 90 17 114 71 112 259 -1 67 -4
132 -8 146 l-7 24 -16 -23 -17 -23 -43 21 c-49 23 -61 24 -98 10z m123 -69
c84 -94 -45 -226 -142 -144 -54 45 -49 126 11 169 35 25 97 13 131 -25z"/>
<path d="M4847 564 c-11 -11 -8 -154 3 -195 5 -19 23 -48 40 -64 33 -31 25
-32 143 2 11 4 17 0 17 -12 0 -9 6 -15 13 -13 9 4 12 41 12 141 0 155 -17 193
-25 57 -8 -122 -32 -160 -99 -160 -48 0 -62 28 -71 135 -6 90 -17 125 -33 109z"/>
<path d="M5407 564 c-4 -4 -7 -52 -7 -106 0 -134 19 -167 95 -167 22 0 51 6
65 14 34 19 37 19 44 -7 13 -49 26 9 25 117 0 116 -10 172 -22 125 -3 -14 -9
-54 -13 -90 -11 -104 -30 -130 -99 -130 -42 0 -52 25 -58 135 -3 78 -16 123
-30 109z"/>
<path d="M5727 563 c-9 -9 -7 -232 3 -263 7 -24 7 -24 14 10 3 19 10 64 16
100 11 76 34 111 79 123 18 4 31 13 28 20 -5 16 -26 16 -64 -2 -29 -13 -34
-13 -51 2 -10 9 -22 14 -25 10z"/>
<path d="M5995 556 c-52 -24 -85 -67 -91 -122 -7 -63 17 -103 80 -134 55 -26
101 -22 143 15 35 29 23 44 -20 26 -18 -8 -49 -16 -69 -18 -32 -4 -42 0 -68
25 -16 17 -30 35 -30 40 0 16 39 22 139 22 l94 0 -6 37 c-7 39 -45 86 -89 109
-33 17 -44 17 -83 0z m93 -46 c38 -23 42 -55 10 -64 -34 -9 -131 -7 -147 3
-29 19 34 80 84 81 11 0 35 -9 53 -20z"/>
<path d="M6303 559 c-38 -11 -63 -43 -63 -81 0 -31 30 -55 103 -82 31 -12 47
-23 47 -35 0 -39 -46 -52 -109 -30 -39 14 -50 6 -26 -21 38 -42 147 -30 171
19 22 44 0 78 -67 102 -67 25 -83 40 -74 68 9 28 41 36 86 21 22 -7 41 -11 44
-8 11 10 -7 37 -28 43 -43 12 -52 13 -84 4z"/>
<path d="M3508 494 c-4 -82 5 -222 13 -209 21 34 20 275 -1 275 -5 0 -10 -30
-12 -66z"/>
</g>
</svg>
